<mxfile host="app.diagrams.net" modified="2022-09-07T14:52:20.424Z" agent="5.0 (Windows NT 10.0; Win64; x64) AppleWebKit/537.36 (KHTML, like Gecko) Chrome/104.0.0.0 Safari/537.36" etag="BWIT1yV6Zy29WcW5QBr-" version="20.2.7" type="github">
  <diagram id="0rWiqkp9f7QkPqhGYT5n" name="Pagina-1">
    <mxGraphModel dx="782" dy="468" grid="1" gridSize="10" guides="1" tooltips="1" connect="1" arrows="1" fold="1" page="1" pageScale="1" pageWidth="827" pageHeight="1169" math="0" shadow="0">
      <root>
        <mxCell id="0" />
        <mxCell id="1" parent="0" />
        <mxCell id="xEY01EKiAgp3C7ow3ueJ-25" value="hotelbedsAPI" style="swimlane;fontStyle=1;align=center;verticalAlign=top;childLayout=stackLayout;horizontal=1;startSize=26;horizontalStack=0;resizeParent=1;resizeParentMax=0;resizeLast=0;collapsible=1;marginBottom=0;swimlaneLine=1;rounded=0;shadow=0;sketch=0;" vertex="1" parent="1">
          <mxGeometry x="70" y="104" width="160" height="130" as="geometry" />
        </mxCell>
        <mxCell id="xEY01EKiAgp3C7ow3ueJ-26" value="hotels: {..}" style="text;strokeColor=none;fillColor=none;align=left;verticalAlign=top;spacingLeft=4;spacingRight=4;overflow=hidden;rotatable=0;points=[[0,0.5],[1,0.5]];portConstraint=eastwest;" vertex="1" parent="xEY01EKiAgp3C7ow3ueJ-25">
          <mxGeometry y="26" width="160" height="26" as="geometry" />
        </mxCell>
        <mxCell id="xEY01EKiAgp3C7ow3ueJ-28" value="hotels.code= :Â  ,int" style="text;strokeColor=none;fillColor=none;align=left;verticalAlign=top;spacingLeft=4;spacingRight=4;overflow=hidden;rotatable=0;points=[[0,0.5],[1,0.5]];portConstraint=eastwest;glass=0;" vertex="1" parent="xEY01EKiAgp3C7ow3ueJ-25">
          <mxGeometry y="52" width="160" height="26" as="geometry" />
        </mxCell>
        <mxCell id="xEY01EKiAgp3C7ow3ueJ-30" value="hotels.name: {content}, str" style="text;strokeColor=none;fillColor=none;align=left;verticalAlign=top;spacingLeft=4;spacingRight=4;overflow=hidden;rotatable=0;points=[[0,0.5],[1,0.5]];portConstraint=eastwest;" vertex="1" parent="xEY01EKiAgp3C7ow3ueJ-25">
          <mxGeometry y="78" width="160" height="26" as="geometry" />
        </mxCell>
        <mxCell id="xEY01EKiAgp3C7ow3ueJ-35" value="hotels.city: {content}, str" style="text;strokeColor=none;fillColor=none;align=left;verticalAlign=top;spacingLeft=4;spacingRight=4;overflow=hidden;rotatable=0;points=[[0,0.5],[1,0.5]];portConstraint=eastwest;" vertex="1" parent="xEY01EKiAgp3C7ow3ueJ-25">
          <mxGeometry y="104" width="160" height="26" as="geometry" />
        </mxCell>
        <mxCell id="xEY01EKiAgp3C7ow3ueJ-38" value="hotelCard" style="swimlane;fontStyle=0;childLayout=stackLayout;horizontal=1;startSize=26;fillColor=none;horizontalStack=0;resizeParent=1;resizeParentMax=0;resizeLast=0;collapsible=1;marginBottom=0;rounded=0;shadow=0;sketch=0;" vertex="1" parent="1">
          <mxGeometry x="290" y="169" width="420" height="104" as="geometry" />
        </mxCell>
        <mxCell id="xEY01EKiAgp3C7ow3ueJ-46" value="hotels.name: {content}, str" style="text;strokeColor=none;fillColor=none;align=left;verticalAlign=top;spacingLeft=4;spacingRight=4;overflow=hidden;rotatable=0;points=[[0,0.5],[1,0.5]];portConstraint=eastwest;" vertex="1" parent="xEY01EKiAgp3C7ow3ueJ-38">
          <mxGeometry y="26" width="420" height="26" as="geometry" />
        </mxCell>
        <mxCell id="xEY01EKiAgp3C7ow3ueJ-32" value="hotels.description: {content}, str" style="text;strokeColor=none;fillColor=none;align=left;verticalAlign=top;spacingLeft=4;spacingRight=4;overflow=hidden;rotatable=0;points=[[0,0.5],[1,0.5]];portConstraint=eastwest;" vertex="1" parent="xEY01EKiAgp3C7ow3ueJ-38">
          <mxGeometry y="52" width="420" height="26" as="geometry" />
        </mxCell>
        <mxCell id="xEY01EKiAgp3C7ow3ueJ-47" value="hotelCard.Infografic: [hotels.amenitycodes, hotels.web,hotels.S2C]" style="text;strokeColor=none;fillColor=none;align=left;verticalAlign=top;spacingLeft=4;spacingRight=4;overflow=hidden;rotatable=0;points=[[0,0.5],[1,0.5]];portConstraint=eastwest;" vertex="1" parent="xEY01EKiAgp3C7ow3ueJ-38">
          <mxGeometry y="78" width="420" height="26" as="geometry" />
        </mxCell>
        <mxCell id="xEY01EKiAgp3C7ow3ueJ-42" value="inforMate Trip" style="swimlane;fontStyle=0;childLayout=stackLayout;horizontal=1;startSize=26;fillColor=none;horizontalStack=0;resizeParent=1;resizeParentMax=0;resizeLast=0;collapsible=1;marginBottom=0;rounded=0;shadow=0;sketch=0;" vertex="1" parent="1">
          <mxGeometry x="480" y="40" width="140" height="52" as="geometry" />
        </mxCell>
      </root>
    </mxGraphModel>
  </diagram>
</mxfile>
